<?xml version="1.0" standalone="no"?>
<!DOCTYPE svg PUBLIC "-//W3C//DTD SVG 20010904//EN"
 "http://www.w3.org/TR/2001/REC-SVG-20010904/DTD/svg10.dtd">
<svg version="1.0" xmlns="http://www.w3.org/2000/svg"
 width="512.000000pt" height="512.000000pt" viewBox="0 0 512.000000 512.000000"
 preserveAspectRatio="xMidYMid meet">

<g transform="translate(0.000000,512.000000) scale(0.100000,-0.100000)"
fill="#000000" stroke="none">
<path d="M1708 3950 c-56 -16 -408 -152 -430 -166 -4 -3 349 -347 785 -765
725 -696 798 -763 862 -794 83 -40 155 -53 250 -44 87 9 169 39 229 85 26 19
114 113 197 207 128 146 148 173 132 179 -10 5 -49 21 -88 37 -56 22 -69 32
-67 47 23 138 6 209 -67 278 -113 105 -271 95 -373 -25 l-42 -47 -57 39 -58
39 19 43 c48 108 31 207 -50 287 -96 97 -225 103 -346 15 -20 -15 -26 -10
-148 127 -143 159 -311 320 -399 380 -135 92 -229 113 -349 78z m1123 -716
c26 -24 33 -68 15 -101 -28 -51 -172 -228 -195 -239 -28 -14 -77 -3 -97 23
-31 41 -18 79 69 198 45 62 93 120 107 129 29 19 74 14 101 -10z m567 -351
c39 -43 30 -71 -68 -203 -111 -148 -145 -167 -201 -111 -48 49 -41 72 66 214
52 69 102 127 112 130 31 7 67 -4 91 -30z"/>
<path d="M1035 3709 c-126 -38 -343 -69 -562 -78 -160 -6 -163 -7 -190 -34
l-28 -27 -3 -355 -3 -355 203 0 c492 0 863 -85 1260 -286 148 -75 207 -131
233 -217 35 -117 19 -165 -135 -411 l-122 -196 -100 0 c-93 0 -98 1 -89 18 6
11 72 117 148 238 125 200 138 223 138 266 0 63 -24 87 -157 154 -371 186
-723 264 -1201 264 l-207 0 -43 -59 c-205 -278 -230 -596 -69 -895 l38 -71
-23 -50 c-35 -78 -46 -146 -33 -208 21 -101 85 -177 189 -226 l56 -26 1850 0
1850 0 144 23 c267 42 522 120 736 223 113 54 130 73 163 181 27 85 45 271 41
405 -4 93 -8 116 -32 165 -31 64 -75 107 -145 141 -61 31 -136 45 -307 57
-159 11 -236 30 -386 94 -57 24 -155 64 -216 89 l-112 45 -167 -191 c-186
-215 -231 -257 -330 -309 -96 -50 -180 -70 -294 -70 -136 0 -240 30 -355 104
-22 14 -411 381 -865 817 -453 435 -829 791 -835 790 -5 0 -23 -5 -40 -10z
m300 -1304 c25 -24 25 -25 25 -227 -1 -212 -3 -223 -47 -246 -31 -17 -895 -17
-926 0 -44 23 -46 34 -47 246 0 202 0 203 25 227 l24 25 461 0 461 0 24 -25z
m3602 -641 c-5 -53 -14 -115 -20 -137 -11 -38 -18 -45 -77 -74 -147 -72 -388
-150 -575 -186 -220 -43 -181 -42 -2080 -42 -1802 0 -1820 0 -1854 20 -75 44
-97 124 -55 196 l20 34 1985 5 c1927 5 1985 6 2019 24 19 11 51 32 71 48 25
20 106 52 278 108 133 44 249 84 259 89 35 21 38 14 29 -85z"/>
<path d="M510 2175 l0 -85 340 0 340 0 0 85 0 85 -340 0 -340 0 0 -85z"/>
</g>
</svg>
